<svg xmlns="http://www.w3.org/2000/svg" width="24" height="24" viewBox="100 104 320 320">
  <!-- Original Ronin app mark; omit the solid tile for VS Code's theme-colored mask. -->
  <path fill="currentColor" transform="translate(113 352) scale(.286 -.286)"
    d="M520 778Q598 759 641.5 736.5Q685 714 685 684Q685 654 664.5 632.5Q644 611 631 611Q622 611 617.5 616Q613 621 597 657Q581 693 562.5 716Q544 739 515 762ZM147 747Q254 705 291.5 678.5Q329 652 329 622.5Q329 593 312.5 564Q296 535 280 535Q270 535 265 540.5Q260 546 250 569Q210 660 140 734ZM755 290H619Q650 200 700 139Q782 202 831 263Q860 243 882 220.5Q904 198 908.5 192.5Q913 187 913 183Q913 176 906.5 176Q900 176 893 178Q886 180 875.5 180Q865 180 846 170L720 115Q813 13 985-33V-55Q943-59 921.5-68.5Q900-78 873-107Q864-117 858-117Q845-117 772-51Q699 15 657 93.5Q615 172 593 290H495V-29L652 55L662 39Q498-105 457-158Q449-169 443-169Q432-169 377-84Q394-66 401-50Q408-34 408-2V551Q408 601 405 645Q454 632 503 609H748L778 657Q783 665 789.5 665Q796 665 838.5 637.5Q881 610 881 600.5Q881 591 841 564V412Q841 363 842 344L844 307Q844 299 835 293.5Q826 288 798 277Q770 266 762.5 266Q755 266 755 282ZM495 466H755V577H495ZM755 437H495V322H755ZM375 546L269 258Q238 172 238 117Q238 62 248 3Q258-56 258-79Q258-130 231-130Q193-130 169-106Q145-82 149-46Q163 60 163 93Q163 116 144 126.5Q125 137 55 153L58 176Q82 174 110 174Q138 174 160 184Q182 194 199 227L364 552ZM72 527Q156 493 201.5 463Q247 433 247 399Q247 378 231 348.5Q215 319 196 319Q188 319 182.5 326.5Q177 334 165 366Q137 436 63 509Z"/>
</svg>
